#N canvas -973 -85 627 614 10;
#X obj 99 111 metro;
#X obj 99 56 tgl 15 0 empty empty empty 17 7 0 10 -262144 -1 -1 0 1
;
#X obj 99 146 tgl 15 0 empty empty empty 17 7 0 10 -262144 -1 -1 0
1;
#X obj 99 326 ctlout;
#X msg 115 299 11;
#X msg 150 299 1;
#X msg 126 77 200;
#X obj 126 53 loadbang;
#X obj 115 267 loadbang;
#X obj 90 215 random 127;
#X connect 0 0 2 0;
#X connect 1 0 0 0;
#X connect 2 0 9 0;
#X connect 4 0 3 1;
#X connect 5 0 3 2;
#X connect 6 0 0 1;
#X connect 7 0 6 0;
#X connect 8 0 4 0;
#X connect 8 0 5 0;
#X connect 9 0 3 0;
