#N canvas -1920 -202 1920 1036 10;
#X obj 259 112 metro;
#X obj 259 91 tgl 15 0 empty empty empty 17 7 0 10 -262144 -1 -1 0
1;
#X floatatom 259 673 5 0 0 0 - - -;
#X obj 259 756 ctlout;
#X msg 275 698 11;
#X msg 306 698 1;
#X obj 259 133 bng 15 250 50 0 empty empty empty 17 7 0 10 -262144
-1 -1;
#X obj 306 673 loadbang;
#X obj 286 67 loadbang;
#X obj 259 171 f;
#X obj 292 171 + 1;
#X obj 259 220 hradio 15 1 0 8 empty empty empty 0 -8 0 10 -262144
-1 -1 5;
#X obj 259 565 f;
#X obj 259 243 select 0 1 2 3 4 5 6 7;
#X obj 259 196 mod 8;
#X msg 278 140 0;
#X obj 259 21 key;
#X obj 259 45 select 32;
#X obj 283 326 vradio 15 1 0 12 empty empty empty 0 -8 0 10 -262144
-1 -1 11;
#N canvas -1079 45 450 300 12tone 0;
#X floatatom 25 81 5 0 0 0 - - -;
#X obj 25 37 * -1;
#X obj 25 59 + 11;
#X obj 25 101 * 11.5;
#X floatatom 25 123 5 0 0 0 - - -;
#X obj 25 167 int;
#X floatatom 25 189 5 0 0 0 - - -;
#X obj 25 145 + 0.5;
#X obj 25 13 inlet;
#X obj 25 212 outlet;
#X connect 0 0 3 0;
#X connect 1 0 2 0;
#X connect 2 0 0 0;
#X connect 3 0 4 0;
#X connect 4 0 7 0;
#X connect 5 0 6 0;
#X connect 6 0 9 0;
#X connect 7 0 5 0;
#X connect 8 0 1 0;
#X restore 283 514 pd 12tone;
#X floatatom 283 536 5 0 0 0 - - -;
#X obj 329 565 f;
#X obj 353 326 vradio 15 1 0 12 empty empty empty 0 -8 0 10 -262144
-1 -1 5;
#N canvas -1079 45 450 300 12tone 0;
#X floatatom 25 81 5 0 0 0 - - -;
#X obj 25 37 * -1;
#X obj 25 59 + 11;
#X obj 25 101 * 11.5;
#X floatatom 25 123 5 0 0 0 - - -;
#X obj 25 167 int;
#X floatatom 25 189 5 0 0 0 - - -;
#X obj 25 145 + 0.5;
#X obj 25 13 inlet;
#X obj 25 212 outlet;
#X connect 0 0 3 0;
#X connect 1 0 2 0;
#X connect 2 0 0 0;
#X connect 3 0 4 0;
#X connect 4 0 7 0;
#X connect 5 0 6 0;
#X connect 6 0 9 0;
#X connect 7 0 5 0;
#X connect 8 0 1 0;
#X restore 353 514 pd 12tone;
#X floatatom 353 536 5 0 0 0 - - -;
#X obj 399 565 f;
#X obj 423 326 vradio 15 1 0 12 empty empty empty 0 -8 0 10 -262144
-1 -1 8;
#N canvas -1079 45 450 300 12tone 0;
#X floatatom 25 81 5 0 0 0 - - -;
#X obj 25 37 * -1;
#X obj 25 59 + 11;
#X obj 25 101 * 11.5;
#X floatatom 25 123 5 0 0 0 - - -;
#X obj 25 167 int;
#X floatatom 25 189 5 0 0 0 - - -;
#X obj 25 145 + 0.5;
#X obj 25 13 inlet;
#X obj 25 212 outlet;
#X connect 0 0 3 0;
#X connect 1 0 2 0;
#X connect 2 0 0 0;
#X connect 3 0 4 0;
#X connect 4 0 7 0;
#X connect 5 0 6 0;
#X connect 6 0 9 0;
#X connect 7 0 5 0;
#X connect 8 0 1 0;
#X restore 423 514 pd 12tone;
#X floatatom 423 536 5 0 0 0 - - -;
#X obj 469 565 f;
#X obj 493 326 vradio 15 1 0 12 empty empty empty 0 -8 0 10 -262144
-1 -1 4;
#N canvas -1079 45 450 300 12tone 0;
#X floatatom 25 81 5 0 0 0 - - -;
#X obj 25 37 * -1;
#X obj 25 59 + 11;
#X obj 25 101 * 11.5;
#X floatatom 25 123 5 0 0 0 - - -;
#X obj 25 167 int;
#X floatatom 25 189 5 0 0 0 - - -;
#X obj 25 145 + 0.5;
#X obj 25 13 inlet;
#X obj 25 212 outlet;
#X connect 0 0 3 0;
#X connect 1 0 2 0;
#X connect 2 0 0 0;
#X connect 3 0 4 0;
#X connect 4 0 7 0;
#X connect 5 0 6 0;
#X connect 6 0 9 0;
#X connect 7 0 5 0;
#X connect 8 0 1 0;
#X restore 493 514 pd 12tone;
#X floatatom 493 536 5 0 0 0 - - -;
#X obj 539 565 f;
#X obj 563 326 vradio 15 1 0 12 empty empty empty 0 -8 0 10 -262144
-1 -1 9;
#N canvas -1079 45 450 300 12tone 0;
#X floatatom 25 81 5 0 0 0 - - -;
#X obj 25 37 * -1;
#X obj 25 59 + 11;
#X obj 25 101 * 11.5;
#X floatatom 25 123 5 0 0 0 - - -;
#X obj 25 167 int;
#X floatatom 25 189 5 0 0 0 - - -;
#X obj 25 145 + 0.5;
#X obj 25 13 inlet;
#X obj 25 212 outlet;
#X connect 0 0 3 0;
#X connect 1 0 2 0;
#X connect 2 0 0 0;
#X connect 3 0 4 0;
#X connect 4 0 7 0;
#X connect 5 0 6 0;
#X connect 6 0 9 0;
#X connect 7 0 5 0;
#X connect 8 0 1 0;
#X restore 563 514 pd 12tone;
#X floatatom 563 536 5 0 0 0 - - -;
#X obj 609 565 f;
#X obj 633 326 vradio 15 1 0 12 empty empty empty 0 -8 0 10 -262144
-1 -1 3;
#N canvas -1079 45 450 300 12tone 0;
#X floatatom 25 81 5 0 0 0 - - -;
#X obj 25 37 * -1;
#X obj 25 59 + 11;
#X obj 25 101 * 11.5;
#X floatatom 25 123 5 0 0 0 - - -;
#X obj 25 167 int;
#X floatatom 25 189 5 0 0 0 - - -;
#X obj 25 145 + 0.5;
#X obj 25 13 inlet;
#X obj 25 212 outlet;
#X connect 0 0 3 0;
#X connect 1 0 2 0;
#X connect 2 0 0 0;
#X connect 3 0 4 0;
#X connect 4 0 7 0;
#X connect 5 0 6 0;
#X connect 6 0 9 0;
#X connect 7 0 5 0;
#X connect 8 0 1 0;
#X restore 633 514 pd 12tone;
#X floatatom 633 536 5 0 0 0 - - -;
#X obj 679 565 f;
#X obj 703 326 vradio 15 1 0 12 empty empty empty 0 -8 0 10 -262144
-1 -1 4;
#N canvas -1079 45 450 300 12tone 0;
#X floatatom 25 81 5 0 0 0 - - -;
#X obj 25 37 * -1;
#X obj 25 59 + 11;
#X obj 25 101 * 11.5;
#X floatatom 25 123 5 0 0 0 - - -;
#X obj 25 167 int;
#X floatatom 25 189 5 0 0 0 - - -;
#X obj 25 145 + 0.5;
#X obj 25 13 inlet;
#X obj 25 212 outlet;
#X connect 0 0 3 0;
#X connect 1 0 2 0;
#X connect 2 0 0 0;
#X connect 3 0 4 0;
#X connect 4 0 7 0;
#X connect 5 0 6 0;
#X connect 6 0 9 0;
#X connect 7 0 5 0;
#X connect 8 0 1 0;
#X restore 703 514 pd 12tone;
#X floatatom 703 536 5 0 0 0 - - -;
#X obj 749 565 f;
#X obj 773 326 vradio 15 1 0 12 empty empty empty 0 -8 0 10 -262144
-1 -1 11;
#N canvas -776 -64 450 300 12tone 0;
#X floatatom 25 81 5 0 0 0 - - -;
#X obj 25 37 * -1;
#X obj 25 59 + 11;
#X obj 25 101 * 11.5;
#X floatatom 25 123 5 0 0 0 - - -;
#X obj 25 167 int;
#X floatatom 25 189 5 0 0 0 - - -;
#X obj 25 145 + 0.5;
#X obj 25 13 inlet;
#X obj 25 212 outlet;
#X connect 0 0 3 0;
#X connect 1 0 2 0;
#X connect 2 0 0 0;
#X connect 3 0 4 0;
#X connect 4 0 7 0;
#X connect 5 0 6 0;
#X connect 6 0 9 0;
#X connect 7 0 5 0;
#X connect 8 0 1 0;
#X restore 773 514 pd 12tone;
#X floatatom 773 536 5 0 0 0 - - -;
#X msg 286 91 130;
#N canvas -863 135 450 300 19tone 0;
#X floatatom 25 81 5 0 0 0 - - -;
#X obj 25 37 * -1;
#X obj 25 59 + 11;
#X floatatom 25 123 5 0 0 0 - - -;
#X obj 25 167 int;
#X floatatom 25 189 5 0 0 0 - - -;
#X obj 25 145 + 0.5;
#X obj 25 13 inlet;
#X obj 25 212 outlet;
#X obj 25 101 * 6.6;
#X connect 0 0 9 0;
#X connect 1 0 2 0;
#X connect 2 0 0 0;
#X connect 3 0 6 0;
#X connect 4 0 5 0;
#X connect 5 0 8 0;
#X connect 6 0 4 0;
#X connect 7 0 1 0;
#X connect 9 0 3 0;
#X restore 1074 141 pd 19tone;
#X connect 0 0 6 0;
#X connect 1 0 0 0;
#X connect 2 0 3 0;
#X connect 4 0 3 1;
#X connect 5 0 3 2;
#X connect 6 0 9 0;
#X connect 7 0 4 0;
#X connect 7 0 5 0;
#X connect 8 0 49 0;
#X connect 9 0 10 0;
#X connect 9 0 14 0;
#X connect 10 0 9 1;
#X connect 11 0 13 0;
#X connect 12 0 2 0;
#X connect 13 0 12 0;
#X connect 13 1 21 0;
#X connect 13 2 25 0;
#X connect 13 3 29 0;
#X connect 13 4 33 0;
#X connect 13 5 37 0;
#X connect 13 6 41 0;
#X connect 13 7 45 0;
#X connect 14 0 11 0;
#X connect 15 0 9 1;
#X connect 16 0 17 0;
#X connect 17 0 1 0;
#X connect 17 0 15 0;
#X connect 18 0 19 0;
#X connect 19 0 20 0;
#X connect 19 0 12 1;
#X connect 20 0 12 1;
#X connect 21 0 2 0;
#X connect 22 0 23 0;
#X connect 23 0 24 0;
#X connect 23 0 21 1;
#X connect 24 0 21 1;
#X connect 25 0 2 0;
#X connect 26 0 27 0;
#X connect 27 0 28 0;
#X connect 27 0 25 1;
#X connect 28 0 25 1;
#X connect 29 0 2 0;
#X connect 30 0 31 0;
#X connect 31 0 32 0;
#X connect 31 0 29 1;
#X connect 32 0 29 1;
#X connect 33 0 2 0;
#X connect 34 0 35 0;
#X connect 35 0 36 0;
#X connect 35 0 33 1;
#X connect 36 0 33 1;
#X connect 37 0 2 0;
#X connect 38 0 39 0;
#X connect 39 0 40 0;
#X connect 39 0 37 1;
#X connect 40 0 37 1;
#X connect 41 0 2 0;
#X connect 42 0 43 0;
#X connect 43 0 44 0;
#X connect 43 0 41 1;
#X connect 44 0 41 1;
#X connect 45 0 2 0;
#X connect 46 0 47 0;
#X connect 47 0 48 0;
#X connect 47 0 45 1;
#X connect 48 0 45 1;
#X connect 49 0 0 1;
