#N canvas -1877 75 1018 614 10;
#X obj 259 112 metro;
#X obj 259 91 tgl 15 0 empty empty empty 17 7 0 10 -262144 -1 -1 0
1;
#X floatatom 259 488 5 0 0 0 - - -;
#X obj 259 536 ctlout;
#X msg 275 513 11;
#X msg 306 513 1;
#X obj 259 133 bng 15 250 50 0 empty empty empty 17 7 0 10 -262144
-1 -1;
#X msg 286 91 200;
#X obj 306 488 loadbang;
#X obj 286 67 loadbang;
#X obj 259 171 f;
#X obj 292 171 + 1;
#X obj 259 250 hradio 15 1 0 8 empty empty empty 0 -8 0 10 -262144
-1 -1 1;
#X obj 259 440 f;
#X obj 277 300 vsl 15 128 0 127 0 0 empty empty empty 0 -9 0 10 -262144
-1 -1 7300 1;
#X obj 259 273 select 0 1 2 3 4 5 6 7;
#X obj 289 440 f;
#X obj 307 300 vsl 15 128 0 127 0 0 empty empty empty 0 -9 0 10 -262144
-1 -1 7000 1;
#X obj 319 440 f;
#X obj 337 300 vsl 15 128 0 127 0 0 empty empty empty 0 -9 0 10 -262144
-1 -1 6100 1;
#X obj 349 440 f;
#X obj 367 300 vsl 15 128 0 127 0 0 empty empty empty 0 -9 0 10 -262144
-1 -1 7300 1;
#X obj 379 440 f;
#X obj 397 300 vsl 15 128 0 127 0 0 empty empty empty 0 -9 0 10 -262144
-1 -1 6800 1;
#X obj 409 440 f;
#X obj 427 300 vsl 15 128 0 127 0 0 empty empty empty 0 -9 0 10 -262144
-1 -1 6200 1;
#X obj 439 440 f;
#X obj 457 300 vsl 15 128 0 127 0 0 empty empty empty 0 -9 0 10 -262144
-1 -1 6600 1;
#X obj 469 440 f;
#X obj 487 300 vsl 15 128 0 127 0 0 empty empty empty 0 -9 0 10 -262144
-1 -1 7500 1;
#X obj 259 206 mod 8;
#X msg 278 140 0;
#X obj 259 21 key;
#X obj 259 45 select 32;
#X connect 0 0 6 0;
#X connect 1 0 0 0;
#X connect 2 0 3 0;
#X connect 4 0 3 1;
#X connect 5 0 3 2;
#X connect 6 0 10 0;
#X connect 7 0 0 1;
#X connect 8 0 4 0;
#X connect 8 0 5 0;
#X connect 9 0 7 0;
#X connect 10 0 11 0;
#X connect 10 0 30 0;
#X connect 11 0 10 1;
#X connect 12 0 15 0;
#X connect 13 0 2 0;
#X connect 14 0 13 1;
#X connect 15 0 13 0;
#X connect 15 1 16 0;
#X connect 15 2 18 0;
#X connect 15 3 20 0;
#X connect 15 4 22 0;
#X connect 15 5 24 0;
#X connect 15 6 26 0;
#X connect 15 7 28 0;
#X connect 16 0 2 0;
#X connect 17 0 16 1;
#X connect 18 0 2 0;
#X connect 19 0 18 1;
#X connect 20 0 2 0;
#X connect 21 0 20 1;
#X connect 22 0 2 0;
#X connect 23 0 22 1;
#X connect 24 0 2 0;
#X connect 25 0 24 1;
#X connect 26 0 2 0;
#X connect 27 0 26 1;
#X connect 28 0 2 0;
#X connect 29 0 28 1;
#X connect 30 0 12 0;
#X connect 31 0 10 1;
#X connect 32 0 33 0;
#X connect 33 0 1 0;
#X connect 33 0 31 0;
