#N canvas -1920 -202 1920 1036 10;
#X obj 259 112 metro;
#X obj 259 91 tgl 15 0 empty empty empty 17 7 0 10 -262144 -1 -1 1
1;
#X floatatom 268 813 5 0 0 0 - - -;
#X obj 268 856 ctlout;
#X msg 284 838 11;
#X msg 315 838 1;
#X obj 259 133 bng 15 250 50 0 empty empty empty 17 7 0 10 -262144
-1 -1;
#X obj 315 813 loadbang;
#X obj 286 67 loadbang;
#X obj 259 171 f;
#X obj 292 171 + 1;
#X obj 259 220 hradio 15 1 0 8 empty empty empty 0 -8 0 10 -262144
-1 -1 5;
#X obj 259 243 select 0 1 2 3 4 5 6 7;
#X obj 259 196 mod 8;
#X msg 278 140 0;
#X obj 259 21 key;
#X obj 259 45 select 32;
#X msg 286 91 130;
#X obj 1075 141;
#X obj 758 705 f;
#X obj 773 316 vradio 15 1 0 19 empty empty empty 0 -8 0 10 -262144
-1 -1 7;
#X floatatom 773 676 5 0 0 0 - - -;
#N canvas -1079 45 450 300 19tone 0;
#X floatatom 25 81 5 0 0 0 - - -;
#X obj 25 37 * -1;
#X floatatom 25 123 5 0 0 0 - - -;
#X obj 25 167 int;
#X floatatom 25 189 5 0 0 0 - - -;
#X obj 25 145 + 0.5;
#X obj 25 13 inlet;
#X obj 25 212 outlet;
#X obj 25 101 * 6.6;
#X obj 25 59 + 18;
#X connect 0 0 8 0;
#X connect 1 0 9 0;
#X connect 2 0 5 0;
#X connect 3 0 4 0;
#X connect 4 0 7 0;
#X connect 5 0 3 0;
#X connect 6 0 1 0;
#X connect 8 0 2 0;
#X connect 9 0 0 0;
#X restore 773 614 pd 19tone;
#X obj 688 705 f;
#X obj 703 316 vradio 15 1 0 19 empty empty empty 0 -8 0 10 -262144
-1 -1 7;
#X floatatom 703 676 5 0 0 0 - - -;
#N canvas -1079 45 450 300 19tone 0;
#X floatatom 25 81 5 0 0 0 - - -;
#X obj 25 37 * -1;
#X floatatom 25 123 5 0 0 0 - - -;
#X obj 25 167 int;
#X floatatom 25 189 5 0 0 0 - - -;
#X obj 25 145 + 0.5;
#X obj 25 13 inlet;
#X obj 25 212 outlet;
#X obj 25 101 * 6.6;
#X obj 25 59 + 18;
#X connect 0 0 8 0;
#X connect 1 0 9 0;
#X connect 2 0 5 0;
#X connect 3 0 4 0;
#X connect 4 0 7 0;
#X connect 5 0 3 0;
#X connect 6 0 1 0;
#X connect 8 0 2 0;
#X connect 9 0 0 0;
#X restore 703 614 pd 19tone;
#X obj 618 705 f;
#X obj 633 316 vradio 15 1 0 19 empty empty empty 0 -8 0 10 -262144
-1 -1 7;
#X floatatom 633 676 5 0 0 0 - - -;
#N canvas -1079 45 450 300 19tone 0;
#X floatatom 25 81 5 0 0 0 - - -;
#X obj 25 37 * -1;
#X floatatom 25 123 5 0 0 0 - - -;
#X obj 25 167 int;
#X floatatom 25 189 5 0 0 0 - - -;
#X obj 25 145 + 0.5;
#X obj 25 13 inlet;
#X obj 25 212 outlet;
#X obj 25 101 * 6.6;
#X obj 25 59 + 18;
#X connect 0 0 8 0;
#X connect 1 0 9 0;
#X connect 2 0 5 0;
#X connect 3 0 4 0;
#X connect 4 0 7 0;
#X connect 5 0 3 0;
#X connect 6 0 1 0;
#X connect 8 0 2 0;
#X connect 9 0 0 0;
#X restore 633 614 pd 19tone;
#X obj 548 705 f;
#X obj 563 316 vradio 15 1 0 19 empty empty empty 0 -8 0 10 -262144
-1 -1 7;
#X floatatom 563 676 5 0 0 0 - - -;
#N canvas -1079 45 450 300 19tone 0;
#X floatatom 25 81 5 0 0 0 - - -;
#X obj 25 37 * -1;
#X floatatom 25 123 5 0 0 0 - - -;
#X obj 25 167 int;
#X floatatom 25 189 5 0 0 0 - - -;
#X obj 25 145 + 0.5;
#X obj 25 13 inlet;
#X obj 25 212 outlet;
#X obj 25 101 * 6.6;
#X obj 25 59 + 18;
#X connect 0 0 8 0;
#X connect 1 0 9 0;
#X connect 2 0 5 0;
#X connect 3 0 4 0;
#X connect 4 0 7 0;
#X connect 5 0 3 0;
#X connect 6 0 1 0;
#X connect 8 0 2 0;
#X connect 9 0 0 0;
#X restore 563 614 pd 19tone;
#X obj 478 705 f;
#X obj 493 316 vradio 15 1 0 19 empty empty empty 0 -8 0 10 -262144
-1 -1 7;
#X floatatom 493 676 5 0 0 0 - - -;
#N canvas -1079 45 450 300 19tone 0;
#X floatatom 25 81 5 0 0 0 - - -;
#X obj 25 37 * -1;
#X floatatom 25 123 5 0 0 0 - - -;
#X obj 25 167 int;
#X floatatom 25 189 5 0 0 0 - - -;
#X obj 25 145 + 0.5;
#X obj 25 13 inlet;
#X obj 25 212 outlet;
#X obj 25 101 * 6.6;
#X obj 25 59 + 18;
#X connect 0 0 8 0;
#X connect 1 0 9 0;
#X connect 2 0 5 0;
#X connect 3 0 4 0;
#X connect 4 0 7 0;
#X connect 5 0 3 0;
#X connect 6 0 1 0;
#X connect 8 0 2 0;
#X connect 9 0 0 0;
#X restore 493 614 pd 19tone;
#X obj 408 705 f;
#X obj 423 316 vradio 15 1 0 19 empty empty empty 0 -8 0 10 -262144
-1 -1 7;
#X floatatom 423 676 5 0 0 0 - - -;
#N canvas -1079 45 450 300 19tone 0;
#X floatatom 25 81 5 0 0 0 - - -;
#X obj 25 37 * -1;
#X floatatom 25 123 5 0 0 0 - - -;
#X obj 25 167 int;
#X floatatom 25 189 5 0 0 0 - - -;
#X obj 25 145 + 0.5;
#X obj 25 13 inlet;
#X obj 25 212 outlet;
#X obj 25 101 * 6.6;
#X obj 25 59 + 18;
#X connect 0 0 8 0;
#X connect 1 0 9 0;
#X connect 2 0 5 0;
#X connect 3 0 4 0;
#X connect 4 0 7 0;
#X connect 5 0 3 0;
#X connect 6 0 1 0;
#X connect 8 0 2 0;
#X connect 9 0 0 0;
#X restore 423 614 pd 19tone;
#X obj 338 705 f;
#X obj 353 316 vradio 15 1 0 19 empty empty empty 0 -8 0 10 -262144
-1 -1 7;
#X floatatom 353 676 5 0 0 0 - - -;
#N canvas -1079 45 450 300 19tone 0;
#X floatatom 25 81 5 0 0 0 - - -;
#X obj 25 37 * -1;
#X floatatom 25 123 5 0 0 0 - - -;
#X obj 25 167 int;
#X floatatom 25 189 5 0 0 0 - - -;
#X obj 25 145 + 0.5;
#X obj 25 13 inlet;
#X obj 25 212 outlet;
#X obj 25 101 * 6.6;
#X obj 25 59 + 18;
#X connect 0 0 8 0;
#X connect 1 0 9 0;
#X connect 2 0 5 0;
#X connect 3 0 4 0;
#X connect 4 0 7 0;
#X connect 5 0 3 0;
#X connect 6 0 1 0;
#X connect 8 0 2 0;
#X connect 9 0 0 0;
#X restore 353 614 pd 19tone;
#X obj 268 705 f;
#X obj 283 316 vradio 15 1 0 19 empty empty empty 0 -8 0 10 -262144
-1 -1 7;
#X floatatom 283 676 5 0 0 0 - - -;
#N canvas -1079 45 450 300 19tone 0;
#X floatatom 25 81 5 0 0 0 - - -;
#X obj 25 37 * -1;
#X floatatom 25 123 5 0 0 0 - - -;
#X obj 25 167 int;
#X floatatom 25 189 5 0 0 0 - - -;
#X obj 25 145 + 0.5;
#X obj 25 13 inlet;
#X obj 25 212 outlet;
#X obj 25 101 * 6.6;
#X obj 25 59 + 18;
#X connect 0 0 8 0;
#X connect 1 0 9 0;
#X connect 2 0 5 0;
#X connect 3 0 4 0;
#X connect 4 0 7 0;
#X connect 5 0 3 0;
#X connect 6 0 1 0;
#X connect 8 0 2 0;
#X connect 9 0 0 0;
#X restore 283 614 pd 19tone;
#X connect 0 0 6 0;
#X connect 1 0 0 0;
#X connect 2 0 3 0;
#X connect 4 0 3 1;
#X connect 5 0 3 2;
#X connect 6 0 9 0;
#X connect 7 0 4 0;
#X connect 7 0 5 0;
#X connect 8 0 17 0;
#X connect 9 0 10 0;
#X connect 9 0 13 0;
#X connect 10 0 9 1;
#X connect 11 0 12 0;
#X connect 12 0 47 0;
#X connect 12 1 43 0;
#X connect 12 2 39 0;
#X connect 12 3 35 0;
#X connect 12 4 31 0;
#X connect 12 5 27 0;
#X connect 12 6 23 0;
#X connect 12 7 19 0;
#X connect 13 0 11 0;
#X connect 14 0 9 1;
#X connect 15 0 16 0;
#X connect 16 0 1 0;
#X connect 16 0 14 0;
#X connect 17 0 0 1;
#X connect 19 0 2 0;
#X connect 20 0 22 0;
#X connect 21 0 19 1;
#X connect 22 0 21 0;
#X connect 23 0 2 0;
#X connect 24 0 26 0;
#X connect 25 0 23 1;
#X connect 26 0 23 1;
#X connect 28 0 30 0;
#X connect 29 0 27 1;
#X connect 30 0 29 0;
#X connect 32 0 34 0;
#X connect 33 0 31 1;
#X connect 34 0 33 0;
#X connect 35 0 2 0;
#X connect 36 0 38 0;
#X connect 37 0 35 1;
#X connect 38 0 37 0;
#X connect 39 0 2 0;
#X connect 40 0 42 0;
#X connect 41 0 39 1;
#X connect 42 0 41 0;
#X connect 43 0 2 0;
#X connect 44 0 46 0;
#X connect 45 0 43 1;
#X connect 46 0 45 0;
#X connect 47 0 2 0;
#X connect 48 0 50 0;
#X connect 49 0 47 1;
#X connect 50 0 49 0;
